<svg width="240" height="812" viewBox="0 0 240 812" fill="none" xmlns="http://www.w3.org/2000/svg">
<rect width="240" height="812" fill="#F3F4F6"/>
<g clip-path="url(#clip0_1340_730)">
<path d="M44.095 24C32.9971 24 24 32.9543 24 43.9996C24 55.0462 32.9971 64 44.095 64C55.1934 64 64.19 55.0462 64.19 43.9996C64.19 32.955 55.1939 24.001 44.0947 24.001L44.095 24ZM53.3104 52.8452C52.9495 53.4344 52.1783 53.619 51.5882 53.2601C46.8694 50.3896 40.9299 49.7412 33.9351 51.3316C33.261 51.4854 32.5891 51.0648 32.4356 50.3942C32.2813 49.7233 32.7019 49.0546 33.3776 48.9018C41.0324 47.16 47.5984 47.9097 52.895 51.1309C53.4853 51.4916 53.6725 52.2582 53.3102 52.8457L53.3104 52.8452ZM55.77 47.4003C55.3155 48.1342 54.3513 48.3644 53.6149 47.9137C48.2146 44.6098 39.9799 43.6529 33.591 45.5831C32.7624 45.8322 31.8872 45.3674 31.6358 44.5442C31.3862 43.7195 31.8534 42.8502 32.6806 42.5994C39.9785 40.3956 49.0509 41.4631 55.2538 45.2568C55.9905 45.7082 56.2233 46.6683 55.7697 47.4005L55.77 47.4003ZM55.9812 41.7296C49.5037 37.901 38.8192 37.549 32.6357 39.4168C31.6427 39.7166 30.5926 39.1587 30.2917 38.1704C29.9908 37.1817 30.5509 36.1373 31.5446 35.8369C38.6428 33.6922 50.4429 34.1066 57.8994 38.5122C58.7925 39.0397 59.0855 40.1878 58.5562 41.0755C58.0282 41.9644 56.8716 42.2574 55.9814 41.7296H55.9812ZM78.6718 42.4633C75.2022 41.6398 74.5845 41.0619 74.5845 39.8474C74.5845 38.7001 75.6699 37.928 77.2839 37.928C78.8484 37.928 80.3997 38.5143 82.0262 39.7214C82.0754 39.7579 82.1371 39.7724 82.1978 39.7629C82.2585 39.7538 82.3122 39.7206 82.3477 39.6707L84.0419 37.2939C84.1115 37.196 84.0925 37.0611 83.9987 36.9863C82.0629 35.4404 79.8831 34.6888 77.3352 34.6888C73.589 34.6888 70.9722 36.9264 70.9722 40.1278C70.9722 43.5609 73.2295 44.7765 77.1303 45.7149C80.4504 46.476 81.0107 47.1137 81.0107 48.2536C81.0107 49.5167 79.8776 50.302 78.0542 50.302C76.0289 50.302 74.377 49.623 72.5291 48.0303C72.4832 47.9909 72.4204 47.973 72.3623 47.9763C72.3011 47.9813 72.2452 48.0095 72.2063 48.0561L70.3068 50.3061C70.2271 50.3994 70.2372 50.5389 70.3294 50.6196C72.4794 52.53 75.1238 53.539 77.9774 53.539C82.0142 53.539 84.6228 51.3438 84.6228 47.946C84.63 45.0777 82.9047 43.4895 78.679 42.4664L78.6718 42.4633ZM93.7557 39.0576C92.0059 39.0576 90.5707 39.7436 89.3872 41.149V39.5671C89.3872 39.4422 89.2855 39.3404 89.1602 39.3404H86.0534C85.928 39.3404 85.8265 39.4422 85.8265 39.5671V57.145C85.8265 57.2699 85.9279 57.3717 86.0534 57.3717H89.1602C89.2855 57.3717 89.3872 57.2699 89.3872 57.145V51.5964C90.5709 52.9185 92.0064 53.5646 93.7557 53.5646C97.0069 53.5646 100.298 51.0736 100.298 46.3119C100.303 41.5491 97.0108 39.0574 93.7593 39.0574L93.7557 39.0576ZM96.6856 46.3119C96.6856 48.7367 95.1849 50.4288 93.036 50.4288C90.9117 50.4288 89.3092 48.6598 89.3092 46.3119C89.3092 43.9643 90.9117 42.1951 93.036 42.1951C95.1501 42.1949 96.6859 43.9259 96.6859 46.3117L96.6856 46.3119ZM108.734 39.0576C104.547 39.0576 101.267 42.2665 101.267 46.3638C101.267 50.4164 104.524 53.5915 108.683 53.5915C112.885 53.5915 116.175 50.3935 116.175 46.3119C116.175 42.2445 112.907 39.0581 108.734 39.0581L108.734 39.0576ZM108.734 50.4529C106.507 50.4529 104.828 48.672 104.828 46.3107C104.828 43.9394 106.449 42.2187 108.683 42.2187C110.924 42.2187 112.614 43.9996 112.614 46.3626C112.614 48.7334 110.983 50.4529 108.734 50.4529H108.734ZM125.116 39.3404H121.697V35.8617C121.697 35.737 121.596 35.6353 121.471 35.6353H118.364C118.239 35.6353 118.137 35.737 118.137 35.8617V39.3404H116.643C116.518 39.3404 116.417 39.4422 116.417 39.5671V42.2245C116.417 42.3491 116.518 42.4511 116.643 42.4511H118.137V49.3271C118.137 52.1058 119.526 53.5147 122.267 53.5147C123.381 53.5147 124.306 53.2856 125.177 52.7939C125.248 52.7545 125.292 52.6785 125.292 52.5978V50.0672C125.292 49.9891 125.251 49.9153 125.184 49.8745C125.116 49.8322 125.032 49.8301 124.963 49.8642C124.364 50.164 123.785 50.3022 123.139 50.3022C122.142 50.3022 121.697 49.8518 121.697 48.8423V42.4523H125.116C125.242 42.4523 125.343 42.3506 125.343 42.2257V39.5685C125.347 39.4436 125.247 39.3419 125.119 39.3419L125.116 39.3404ZM137.028 39.354V38.9268C137.028 37.6698 137.512 37.1093 138.598 37.1093C139.246 37.1093 139.766 37.2373 140.349 37.4308C140.42 37.4532 140.495 37.442 140.553 37.3992C140.613 37.3565 140.647 37.288 140.647 37.2154V34.6098C140.647 34.5102 140.583 34.4221 140.487 34.3927C139.871 34.2104 139.083 34.0235 137.904 34.0235C135.035 34.0235 133.518 35.6317 133.518 38.6727V39.327H132.026C131.9 39.327 131.798 39.4288 131.798 39.5534V42.2245C131.798 42.3491 131.9 42.4511 132.026 42.4511H133.518V53.057C133.518 53.1819 133.619 53.2837 133.745 53.2837H136.851C136.977 53.2837 137.079 53.1819 137.079 53.057V42.4518H139.98L144.423 53.0552C143.919 54.1693 143.423 54.3909 142.746 54.3909C142.198 54.3909 141.622 54.2283 141.032 53.9073C140.977 53.8769 140.911 53.8719 140.851 53.8903C140.792 53.9111 140.742 53.955 140.717 54.0124L139.664 56.3115C139.614 56.4202 139.657 56.5477 139.762 56.6041C140.861 57.1966 141.854 57.4495 143.08 57.4495C145.374 57.4495 146.642 56.386 147.76 53.5249L153.149 39.6635C153.177 39.5938 153.168 39.515 153.125 39.4531C153.083 39.3918 153.014 39.3547 152.939 39.3547H149.704C149.607 39.3547 149.521 39.4161 149.489 39.5066L146.176 48.9254L142.547 39.5004C142.514 39.4128 142.429 39.3547 142.335 39.3547H137.027L137.028 39.354ZM130.122 39.3404H127.015C126.889 39.3404 126.787 39.4422 126.787 39.5671V53.0571C126.787 53.182 126.889 53.2837 127.015 53.2837H130.122C130.247 53.2837 130.349 53.182 130.349 53.0571V39.568C130.349 39.5382 130.344 39.5087 130.332 39.4811C130.321 39.4536 130.304 39.4286 130.283 39.4075C130.262 39.3865 130.236 39.3698 130.209 39.3584C130.181 39.3471 130.151 39.3413 130.121 39.3414L130.122 39.3404ZM128.586 33.1981C127.355 33.1981 126.356 34.1897 126.356 35.4146C126.356 36.6403 127.355 37.6331 128.586 37.6331C129.816 37.6331 130.814 36.6403 130.814 35.4146C130.814 34.1899 129.816 33.1981 128.587 33.1981H128.586ZM155.802 43.6777C154.573 43.6777 153.616 42.6949 153.616 41.5015C153.616 40.3081 154.585 39.3141 155.814 39.3141C157.043 39.3141 158 40.2967 158 41.4891C158 42.6825 157.031 43.6777 155.802 43.6777H155.802ZM155.814 39.5305C154.694 39.5305 153.847 40.4166 153.847 41.5015C153.847 42.586 154.688 43.4601 155.803 43.4601C156.923 43.4601 157.771 42.5748 157.771 41.4891C157.771 40.4046 156.929 39.5305 155.815 39.5305H155.814ZM156.299 41.7129L156.917 42.5746H156.396L155.839 41.7841H155.36V42.5746H154.924V40.2905H155.947C156.481 40.2905 156.831 40.562 156.831 41.0191C156.834 41.3936 156.615 41.6224 156.301 41.7129H156.299V41.7129ZM155.929 40.6824H155.36V41.4048H155.929C156.214 41.4048 156.383 41.2665 156.383 41.0433C156.383 40.8083 156.213 40.6824 155.93 40.6824H155.929V40.6824Z" fill="#2EBD59"/>
</g>
<g filter="url(#filter0_d_1340_730)">
<path d="M8 92C8 87.5817 11.5817 84 16 84H224C228.418 84 232 87.5817 232 92V116C232 120.418 228.418 124 224 124H16C11.5817 124 8 120.418 8 116V92Z" fill="white"/>
<path d="M36.8485 94.7515C36.3799 94.2828 35.6201 94.2828 35.1515 94.7515L26.7515 103.151C26.2828 103.62 26.2828 104.38 26.7515 104.849C27.2201 105.317 27.9799 105.317 28.4485 104.849L28.8 104.497V112.4C28.8 113.063 29.3373 113.6 30 113.6H32.4C33.0627 113.6 33.6 113.063 33.6 112.4V110C33.6 109.337 34.1373 108.8 34.8 108.8H37.2C37.8627 108.8 38.4 109.337 38.4 110V112.4C38.4 113.063 38.9373 113.6 39.6 113.6H42C42.6627 113.6 43.2 113.063 43.2 112.4V104.497L43.5515 104.849C44.0201 105.317 44.7799 105.317 45.2485 104.849C45.7171 104.38 45.7171 103.62 45.2485 103.151L36.8485 94.7515Z" fill="#10B981"/>
<path d="M61.1186 109H62.6548V104.56H67.7308V109H69.272V98.8182H67.7308V103.243H62.6548V98.8182H61.1186V109ZM74.6065 109.154C76.7592 109.154 78.1662 107.578 78.1662 105.217C78.1662 102.84 76.7592 101.264 74.6065 101.264C72.4538 101.264 71.0469 102.84 71.0469 105.217C71.0469 107.578 72.4538 109.154 74.6065 109.154ZM74.6115 107.906C73.2045 107.906 72.5483 106.678 72.5483 105.212C72.5483 103.75 73.2045 102.507 74.6115 102.507C76.0085 102.507 76.6648 103.75 76.6648 105.212C76.6648 106.678 76.0085 107.906 74.6115 107.906ZM79.8255 109H81.312V104.292C81.312 103.263 82.0328 102.547 82.878 102.547C83.7033 102.547 84.275 103.094 84.275 103.924V109H85.7566V104.133C85.7566 103.213 86.3184 102.547 87.2878 102.547C88.0733 102.547 88.7196 102.984 88.7196 104.018V109H90.2061V103.879C90.2061 102.134 89.2317 101.264 87.8496 101.264C86.7509 101.264 85.9256 101.791 85.5577 102.607H85.4782C85.1451 101.771 84.4441 101.264 83.4249 101.264C82.4157 101.264 81.665 101.766 81.3468 102.607H81.2523V101.364H79.8255V109ZM95.4897 109.154C97.1552 109.154 98.3335 108.334 98.6715 107.091L97.2646 106.837C96.9961 107.558 96.3498 107.926 95.5046 107.926C94.2319 107.926 93.3768 107.101 93.337 105.629H98.766V105.102C98.766 102.343 97.1154 101.264 95.3853 101.264C93.2575 101.264 91.8555 102.885 91.8555 105.232C91.8555 107.603 93.2376 109.154 95.4897 109.154ZM93.342 104.516C93.4016 103.432 94.1871 102.492 95.3952 102.492C96.5487 102.492 97.3043 103.347 97.3093 104.516H93.342Z" fill="#10B981"/>
</g>
<path d="M45 153L39 147M41 142C41 145.866 37.866 149 34 149C30.134 149 27 145.866 27 142C27 138.134 30.134 135 34 135C37.866 135 41 138.134 41 142Z" stroke="#6B7280" stroke-width="2" stroke-linecap="round" stroke-linejoin="round"/>
<path d="M66.6719 141.493H68.1534C68.1087 139.862 66.6669 138.679 64.5987 138.679C62.5554 138.679 60.9893 139.847 60.9893 141.602C60.9893 143.019 62.0036 143.849 63.6392 144.292L64.8423 144.62C65.9311 144.908 66.7713 145.266 66.7713 146.171C66.7713 147.165 65.8217 147.822 64.5142 147.822C63.331 147.822 62.3466 147.295 62.2571 146.186H60.7159C60.8153 148.031 62.2422 149.169 64.5241 149.169C66.9155 149.169 68.2926 147.911 68.2926 146.186C68.2926 144.352 66.657 143.641 65.3643 143.322L64.37 143.064C63.5746 142.86 62.5156 142.487 62.5206 141.513C62.5206 140.648 63.3111 140.006 64.5639 140.006C65.7322 140.006 66.5625 140.553 66.6719 141.493ZM73.3002 149.154C74.9657 149.154 76.144 148.334 76.4821 147.091L75.0751 146.837C74.8066 147.558 74.1603 147.926 73.3152 147.926C72.0424 147.926 71.1873 147.101 71.1475 145.629H76.5765V145.102C76.5765 142.343 74.926 141.264 73.1958 141.264C71.068 141.264 69.666 142.885 69.666 145.232C69.666 147.603 71.0481 149.154 73.3002 149.154ZM71.1525 144.516C71.2122 143.432 71.9977 142.492 73.2058 142.492C74.3592 142.492 75.1149 143.347 75.1199 144.516H71.1525ZM80.4482 149.169C81.7109 149.169 82.4219 148.528 82.7053 147.956H82.7649V149H84.2166V143.929C84.2166 141.707 82.4666 141.264 81.2536 141.264C79.8714 141.264 78.5987 141.821 78.1016 143.213L79.4986 143.531C79.7173 142.989 80.2741 142.467 81.2734 142.467C82.233 142.467 82.7251 142.969 82.7251 143.835V143.869C82.7251 144.411 82.1683 144.401 80.7962 144.56C79.3494 144.729 77.8679 145.107 77.8679 146.842C77.8679 148.344 78.9964 149.169 80.4482 149.169ZM80.7713 147.976C79.9311 147.976 79.3246 147.598 79.3246 146.862C79.3246 146.067 80.0305 145.783 80.8906 145.669C81.3729 145.604 82.5163 145.475 82.7301 145.261V146.246C82.7301 147.151 82.0092 147.976 80.7713 147.976ZM86.1966 149H87.6831V144.337C87.6831 143.337 88.4537 142.616 89.5076 142.616C89.8159 142.616 90.1639 142.671 90.2832 142.706V141.284C90.1341 141.264 89.8407 141.249 89.6518 141.249C88.7569 141.249 87.9913 141.756 87.7129 142.577H87.6333V141.364H86.1966V149ZM94.5128 149.154C96.3175 149.154 97.4858 148.07 97.6499 146.584H96.2031C96.0142 147.409 95.3729 147.896 94.5227 147.896C93.2649 147.896 92.4545 146.847 92.4545 145.182C92.4545 143.546 93.2798 142.517 94.5227 142.517C95.4673 142.517 96.044 143.114 96.2031 143.83H97.6499C97.4908 142.288 96.233 141.264 94.4979 141.264C92.3452 141.264 90.9531 142.885 90.9531 145.217C90.9531 147.518 92.2955 149.154 94.5128 149.154ZM100.726 144.466C100.726 143.248 101.497 142.552 102.556 142.552C103.58 142.552 104.191 143.203 104.191 144.322V149H105.678V144.143C105.678 142.239 104.634 141.264 103.063 141.264C101.874 141.264 101.159 141.781 100.801 142.607H100.706V138.818H99.2395V149H100.726V144.466Z" fill="#6B7280"/>
<path d="M28 178C28 176.895 28.8954 176 30 176H32C33.1046 176 34 176.895 34 178V180C34 181.105 33.1046 182 32 182H30C28.8954 182 28 181.105 28 180V178Z" stroke="#6B7280" stroke-width="2" stroke-linecap="round" stroke-linejoin="round"/>
<path d="M38 178C38 176.895 38.8954 176 40 176H42C43.1046 176 44 176.895 44 178V180C44 181.105 43.1046 182 42 182H40C38.8954 182 38 181.105 38 180V178Z" stroke="#6B7280" stroke-width="2" stroke-linecap="round" stroke-linejoin="round"/>
<path d="M28 188C28 186.895 28.8954 186 30 186H32C33.1046 186 34 186.895 34 188V190C34 191.105 33.1046 192 32 192H30C28.8954 192 28 191.105 28 190V188Z" stroke="#6B7280" stroke-width="2" stroke-linecap="round" stroke-linejoin="round"/>
<path d="M38 188C38 186.895 38.8954 186 40 186H42C43.1046 186 44 186.895 44 188V190C44 191.105 43.1046 192 42 192H40C38.8954 192 38 191.105 38 190V188Z" stroke="#6B7280" stroke-width="2" stroke-linecap="round" stroke-linejoin="round"/>
<path d="M60.3331 178.818L64.027 185.003V189H65.5582V185.003L69.2521 178.818H67.5071L64.8473 183.447H64.7379L62.0781 178.818H60.3331ZM72.5558 189.154C74.7085 189.154 76.1154 187.578 76.1154 185.217C76.1154 182.84 74.7085 181.264 72.5558 181.264C70.4031 181.264 68.9961 182.84 68.9961 185.217C68.9961 187.578 70.4031 189.154 72.5558 189.154ZM72.5607 187.906C71.1538 187.906 70.4975 186.678 70.4975 185.212C70.4975 183.75 71.1538 182.507 72.5607 182.507C73.9577 182.507 74.614 183.75 74.614 185.212C74.614 186.678 73.9577 187.906 72.5607 187.906ZM82.612 185.833C82.617 187.131 81.6525 187.747 80.8173 187.747C79.8975 187.747 79.2612 187.081 79.2612 186.042V181.364H77.7747V186.221C77.7747 188.115 78.8137 189.099 80.2804 189.099C81.4288 189.099 82.2093 188.493 82.5623 187.678H82.6419V189H84.1035V181.364H82.612V185.833ZM86.1009 189H87.5874V184.337C87.5874 183.337 88.358 182.616 89.4119 182.616C89.7202 182.616 90.0682 182.671 90.1875 182.706V181.284C90.0384 181.264 89.745 181.249 89.5561 181.249C88.6612 181.249 87.8956 181.756 87.6172 182.577H87.5376V181.364H86.1009V189ZM95.2983 189H101.448V187.678H96.8345V178.818H95.2983V189ZM103.081 189H104.568V181.364H103.081V189ZM103.832 180.185C104.344 180.185 104.772 179.788 104.772 179.3C104.772 178.813 104.344 178.411 103.832 178.411C103.315 178.411 102.892 178.813 102.892 179.3C102.892 179.788 103.315 180.185 103.832 180.185ZM106.687 189H108.139V187.812H108.263C108.531 188.299 109.078 189.149 110.47 189.149C112.32 189.149 113.662 187.668 113.662 185.197C113.662 182.721 112.3 181.264 110.455 181.264C109.039 181.264 108.526 182.129 108.263 182.602H108.173V178.818H106.687V189ZM108.144 185.182C108.144 183.586 108.84 182.527 110.137 182.527C111.485 182.527 112.161 183.665 112.161 185.182C112.161 186.713 111.465 187.881 110.137 187.881C108.86 187.881 108.144 186.788 108.144 185.182ZM115.331 189H116.818V184.337C116.818 183.337 117.588 182.616 118.642 182.616C118.951 182.616 119.299 182.671 119.418 182.706V181.284C119.269 181.264 118.975 181.249 118.787 181.249C117.892 181.249 117.126 181.756 116.848 182.577H116.768V181.364H115.331V189ZM122.858 189.169C124.121 189.169 124.832 188.528 125.115 187.956H125.175V189H126.627V183.929C126.627 181.707 124.877 181.264 123.664 181.264C122.282 181.264 121.009 181.821 120.512 183.213L121.909 183.531C122.127 182.989 122.684 182.467 123.684 182.467C124.643 182.467 125.135 182.969 125.135 183.835V183.869C125.135 184.411 124.578 184.401 123.206 184.56C121.76 184.729 120.278 185.107 120.278 186.842C120.278 188.344 121.407 189.169 122.858 189.169ZM123.181 187.976C122.341 187.976 121.735 187.598 121.735 186.862C121.735 186.067 122.441 185.783 123.301 185.669C123.783 185.604 124.926 185.475 125.14 185.261V186.246C125.14 187.151 124.419 187.976 123.181 187.976ZM128.607 189H130.093V184.337C130.093 183.337 130.864 182.616 131.918 182.616C132.226 182.616 132.574 182.671 132.693 182.706V181.284C132.544 181.264 132.251 181.249 132.062 181.249C131.167 181.249 130.401 181.756 130.123 182.577H130.044V181.364H128.607V189ZM135.152 191.864C136.38 191.864 137.155 191.222 137.598 190.019L140.755 181.379L139.149 181.364L137.215 187.29H137.135L135.202 181.364H133.611L136.405 189.099L136.221 189.607C135.843 190.621 135.311 190.705 134.496 190.482L134.138 191.7C134.317 191.779 134.704 191.864 135.152 191.864Z" fill="#6B7280"/>
<path d="M28 788L28 789C28 790.657 29.3431 792 31 792L41 792C42.6569 792 44 790.657 44 789L44 788M40 784L36 788M36 788L32 784M36 788L36 776" stroke="#6B7280" stroke-width="2" stroke-linecap="round" stroke-linejoin="round"/>
<path d="M62.6548 778.818H61.1186V789H62.6548V778.818ZM66.2592 784.466C66.2592 783.248 67.005 782.552 68.0391 782.552C69.0483 782.552 69.6598 783.213 69.6598 784.322V789H71.1463V784.143C71.1463 782.254 70.1072 781.264 68.5462 781.264C67.3977 781.264 66.647 781.796 66.294 782.607H66.1996V781.364H64.7727V789H66.2592V784.466ZM78.8622 783.228C78.554 782.04 77.6243 781.264 75.9737 781.264C74.2486 781.264 73.0256 782.174 73.0256 783.526C73.0256 784.61 73.6818 785.331 75.1136 785.649L76.4062 785.933C77.142 786.097 77.4851 786.425 77.4851 786.902C77.4851 787.494 76.8537 787.956 75.8793 787.956C74.9893 787.956 74.4176 787.573 74.2386 786.822L72.8018 787.041C73.0504 788.393 74.174 789.154 75.8892 789.154C77.7337 789.154 79.0114 788.175 79.0114 786.793C79.0114 785.714 78.3253 785.048 76.9233 784.724L75.7102 784.446C74.87 784.247 74.5071 783.964 74.5121 783.447C74.5071 782.86 75.1435 782.442 75.9886 782.442C76.9134 782.442 77.3409 782.955 77.5149 783.467L78.8622 783.228ZM84.2104 781.364H82.6444V779.534H81.1578V781.364H80.0392V782.557H81.1578V787.066C81.1529 788.453 82.2118 789.124 83.3851 789.099C83.8574 789.094 84.1756 789.005 84.3496 788.94L84.0811 787.712C83.9817 787.732 83.7978 787.777 83.5591 787.777C83.0769 787.777 82.6444 787.618 82.6444 786.758V782.557H84.2104V781.364ZM88.0771 789.169C89.3398 789.169 90.0508 788.528 90.3342 787.956H90.3938V789H91.8455V783.929C91.8455 781.707 90.0955 781.264 88.8825 781.264C87.5004 781.264 86.2276 781.821 85.7305 783.213L87.1275 783.531C87.3462 782.989 87.9031 782.467 88.9023 782.467C89.8619 782.467 90.354 782.969 90.354 783.835V783.869C90.354 784.411 89.7972 784.401 88.4251 784.56C86.9783 784.729 85.4968 785.107 85.4968 786.842C85.4968 788.344 86.6254 789.169 88.0771 789.169ZM88.4002 787.976C87.56 787.976 86.9535 787.598 86.9535 786.862C86.9535 786.067 87.6594 785.783 88.5195 785.669C89.0018 785.604 90.1452 785.475 90.359 785.261V786.246C90.359 787.151 89.6381 787.976 88.4002 787.976ZM95.312 778.818H93.8255V789H95.312V778.818ZM98.7983 778.818H97.3118V789H98.7983V778.818ZM105.483 789L106.417 786.305H110.395L111.324 789H112.955L109.291 778.818H107.516L103.852 789H105.483ZM106.865 785.013L108.366 780.668H108.446L109.947 785.013H106.865ZM114.306 791.864H115.792V787.812H115.882C116.15 788.299 116.697 789.149 118.089 789.149C119.939 789.149 121.281 787.668 121.281 785.197C121.281 782.721 119.919 781.264 118.074 781.264C116.657 781.264 116.145 782.129 115.882 782.602H115.758V781.364H114.306V791.864ZM115.763 785.182C115.763 783.586 116.459 782.527 117.756 782.527C119.104 782.527 119.78 783.665 119.78 785.182C119.78 786.713 119.084 787.881 117.756 787.881C116.479 787.881 115.763 786.788 115.763 785.182ZM122.947 791.864H124.433V787.812H124.523C124.791 788.299 125.338 789.149 126.73 789.149C128.579 789.149 129.922 787.668 129.922 785.197C129.922 782.721 128.559 781.264 126.715 781.264C125.298 781.264 124.786 782.129 124.523 782.602H124.398V781.364H122.947V791.864ZM124.403 785.182C124.403 783.586 125.099 782.527 126.397 782.527C127.744 782.527 128.42 783.665 128.42 785.182C128.42 786.713 127.724 787.881 126.397 787.881C125.119 787.881 124.403 786.788 124.403 785.182Z" fill="#6B7280"/>
<path fill-rule="evenodd" clip-rule="evenodd" d="M36 257.6C41.3019 257.6 45.6 253.302 45.6 248C45.6 242.698 41.3019 238.4 36 238.4C30.6981 238.4 26.4 242.698 26.4 248C26.4 253.302 30.6981 257.6 36 257.6ZM37.2 244.4C37.2 243.737 36.6627 243.2 36 243.2C35.3372 243.2 34.8 243.737 34.8 244.4V246.8H32.4C31.7372 246.8 31.2 247.337 31.2 248C31.2 248.663 31.7372 249.2 32.4 249.2H34.8V251.6C34.8 252.263 35.3372 252.8 36 252.8C36.6627 252.8 37.2 252.263 37.2 251.6V249.2H39.6C40.2627 249.2 40.8 248.663 40.8 248C40.8 247.337 40.2627 246.8 39.6 246.8H37.2V244.4Z" fill="#6B7280"/>
<path d="M69.5753 246.129C69.2273 243.952 67.522 242.679 65.3693 242.679C62.7344 242.679 60.7905 244.653 60.7905 247.909C60.7905 251.165 62.7244 253.139 65.3693 253.139C67.6065 253.139 69.2422 251.737 69.5753 249.724L68.0241 249.719C67.7607 251.021 66.6669 251.737 65.3793 251.737C63.6342 251.737 62.3168 250.4 62.3168 247.909C62.3168 245.438 63.6293 244.081 65.3842 244.081C66.6818 244.081 67.7706 244.812 68.0241 246.129H69.5753ZM71.2942 253H72.7807V248.337C72.7807 247.337 73.5513 246.616 74.6053 246.616C74.9135 246.616 75.2615 246.671 75.3809 246.706V245.284C75.2317 245.264 74.9384 245.249 74.7495 245.249C73.8546 245.249 73.089 245.756 72.8105 246.577H72.731V245.364H71.2942V253ZM79.685 253.154C81.3505 253.154 82.5288 252.334 82.8668 251.091L81.4599 250.837C81.1914 251.558 80.5451 251.926 79.6999 251.926C78.4272 251.926 77.5721 251.101 77.5323 249.629H82.9613V249.102C82.9613 246.343 81.3107 245.264 79.5806 245.264C77.4528 245.264 76.0508 246.885 76.0508 249.232C76.0508 251.603 77.4329 253.154 79.685 253.154ZM77.5373 248.516C77.5969 247.432 78.3825 246.492 79.5906 246.492C80.744 246.492 81.4996 247.347 81.5046 248.516H77.5373ZM86.8329 253.169C88.0957 253.169 88.8066 252.528 89.09 251.956H89.1497V253H90.6014V247.929C90.6014 245.707 88.8514 245.264 87.6383 245.264C86.2562 245.264 84.9835 245.821 84.4863 247.213L85.8833 247.531C86.1021 246.989 86.6589 246.467 87.6582 246.467C88.6177 246.467 89.1099 246.969 89.1099 247.835V247.869C89.1099 248.411 88.5531 248.401 87.1809 248.56C85.7342 248.729 84.2527 249.107 84.2527 250.842C84.2527 252.344 85.3812 253.169 86.8329 253.169ZM87.1561 251.976C86.3159 251.976 85.7093 251.598 85.7093 250.862C85.7093 250.067 86.4153 249.783 87.2754 249.669C87.7576 249.604 88.9011 249.475 89.1149 249.261V250.246C89.1149 251.151 88.394 251.976 87.1561 251.976ZM96.146 245.364H94.5799V243.534H93.0934V245.364H91.9748V246.557H93.0934V251.066C93.0884 252.453 94.1474 253.124 95.3207 253.099C95.793 253.094 96.1112 253.005 96.2852 252.94L96.0167 251.712C95.9173 251.732 95.7333 251.777 95.4947 251.777C95.0124 251.777 94.5799 251.618 94.5799 250.758V246.557H96.146V245.364ZM100.999 253.154C102.665 253.154 103.843 252.334 104.181 251.091L102.774 250.837C102.506 251.558 101.86 251.926 101.014 251.926C99.7417 251.926 98.8865 251.101 98.8468 249.629H104.276V249.102C104.276 246.343 102.625 245.264 100.895 245.264C98.7672 245.264 97.3652 246.885 97.3652 249.232C97.3652 251.603 98.7473 253.154 100.999 253.154ZM98.8517 248.516C98.9114 247.432 99.6969 246.492 100.905 246.492C102.058 246.492 102.814 247.347 102.819 248.516H98.8517ZM109.749 253H111.286V249.42H113.374C115.735 249.42 116.904 247.994 116.904 246.114C116.904 244.24 115.745 242.818 113.379 242.818H109.749V253ZM111.286 248.118V244.136H113.215C114.736 244.136 115.357 244.961 115.357 246.114C115.357 247.268 114.736 248.118 113.235 248.118H111.286ZM120.072 242.818H118.585V253H120.072V242.818ZM124.294 253.169C125.557 253.169 126.268 252.528 126.551 251.956H126.611V253H128.062V247.929C128.062 245.707 126.312 245.264 125.099 245.264C123.717 245.264 122.444 245.821 121.947 247.213L123.344 247.531C123.563 246.989 124.12 246.467 125.119 246.467C126.079 246.467 126.571 246.969 126.571 247.835V247.869C126.571 248.411 126.014 248.401 124.642 248.56C123.195 248.729 121.714 249.107 121.714 250.842C121.714 252.344 122.842 253.169 124.294 253.169ZM124.617 251.976C123.777 251.976 123.17 251.598 123.17 250.862C123.17 250.067 123.876 249.783 124.736 249.669C125.219 249.604 126.362 249.475 126.576 249.261V250.246C126.576 251.151 125.855 251.976 124.617 251.976ZM130.708 255.864C131.936 255.864 132.712 255.222 133.154 254.019L136.311 245.379L134.706 245.364L132.772 251.29H132.692L130.758 245.364H129.167L131.961 253.099L131.777 253.607C131.4 254.621 130.868 254.705 130.052 254.482L129.694 255.7C129.873 255.779 130.261 255.864 130.708 255.864ZM139.199 242.818H137.712V253H139.199V242.818ZM141.199 253H142.685V245.364H141.199V253ZM141.949 244.185C142.461 244.185 142.889 243.788 142.889 243.3C142.889 242.813 142.461 242.411 141.949 242.411C141.432 242.411 141.01 242.813 141.01 243.3C141.01 243.788 141.432 244.185 141.949 244.185ZM150.407 247.228C150.099 246.04 149.169 245.264 147.519 245.264C145.794 245.264 144.57 246.174 144.57 247.526C144.57 248.61 145.227 249.331 146.659 249.649L147.951 249.933C148.687 250.097 149.03 250.425 149.03 250.902C149.03 251.494 148.399 251.956 147.424 251.956C146.534 251.956 145.963 251.573 145.784 250.822L144.347 251.041C144.595 252.393 145.719 253.154 147.434 253.154C149.279 253.154 150.556 252.175 150.556 250.793C150.556 249.714 149.87 249.048 148.468 248.724L147.255 248.446C146.415 248.247 146.052 247.964 146.057 247.447C146.052 246.86 146.688 246.442 147.534 246.442C148.458 246.442 148.886 246.955 149.06 247.467L150.407 247.228ZM155.755 245.364H154.189V243.534H152.703V245.364H151.584V246.557H152.703V251.066C152.698 252.453 153.757 253.124 154.93 253.099C155.402 253.094 155.721 253.005 155.895 252.94L155.626 251.712C155.527 251.732 155.343 251.777 155.104 251.777C154.622 251.777 154.189 251.618 154.189 250.758V246.557H155.755V245.364Z" fill="#6B7280"/>
<path d="M28.318 282.318C26.5607 284.075 26.5607 286.925 28.318 288.682L36.0001 296.364L43.682 288.682C45.4393 286.925 45.4393 284.075 43.682 282.318C41.9246 280.561 39.0754 280.561 37.318 282.318L36.0001 283.636L34.682 282.318C32.9246 280.561 30.0754 280.561 28.318 282.318Z" stroke="#6B7280" stroke-width="2" stroke-linecap="round" stroke-linejoin="round"/>
<path d="M61.1186 293H67.2685V291.678H62.6548V282.818H61.1186V293ZM68.9016 293H70.3881V285.364H68.9016V293ZM69.6523 284.185C70.1644 284.185 70.592 283.788 70.592 283.3C70.592 282.813 70.1644 282.411 69.6523 282.411C69.1353 282.411 68.7127 282.813 68.7127 283.3C68.7127 283.788 69.1353 284.185 69.6523 284.185ZM72.388 293H73.8745V290.29L74.6152 289.55L77.2104 293H79.035L75.7338 288.64L78.8262 285.364H77.0463L74.0037 288.595H73.8745V282.818H72.388V293ZM83.1577 293.154C84.8232 293.154 86.0014 292.334 86.3395 291.091L84.9325 290.837C84.6641 291.558 84.0178 291.926 83.1726 291.926C81.8999 291.926 81.0447 291.101 81.005 289.629H86.4339V289.102C86.4339 286.343 84.7834 285.264 83.0533 285.264C80.9254 285.264 79.5234 286.885 79.5234 289.232C79.5234 291.603 80.9055 293.154 83.1577 293.154ZM81.0099 288.516C81.0696 287.432 81.8551 286.492 83.0632 286.492C84.2166 286.492 84.9723 287.347 84.9773 288.516H81.0099ZM90.9419 293.149C92.334 293.149 92.8809 292.299 93.1493 291.812H93.2736V293H94.7253V282.818H93.2388V286.602H93.1493C92.8809 286.129 92.3738 285.264 90.9519 285.264C89.1074 285.264 87.7502 286.721 87.7502 289.197C87.7502 291.668 89.0875 293.149 90.9419 293.149ZM91.2701 291.881C89.9426 291.881 89.2516 290.713 89.2516 289.182C89.2516 287.665 89.9277 286.527 91.2701 286.527C92.5676 286.527 93.2637 287.586 93.2637 289.182C93.2637 290.788 92.5527 291.881 91.2701 291.881ZM106.225 285.493H107.706C107.661 283.862 106.22 282.679 104.151 282.679C102.108 282.679 100.542 283.847 100.542 285.602C100.542 287.019 101.556 287.849 103.192 288.292L104.395 288.62C105.484 288.908 106.324 289.266 106.324 290.171C106.324 291.165 105.374 291.822 104.067 291.822C102.884 291.822 101.899 291.295 101.81 290.186H100.269C100.368 292.031 101.795 293.169 104.077 293.169C106.468 293.169 107.845 291.911 107.845 290.186C107.845 288.352 106.21 287.641 104.917 287.322L103.923 287.064C103.127 286.86 102.068 286.487 102.073 285.513C102.073 284.648 102.864 284.006 104.117 284.006C105.285 284.006 106.115 284.553 106.225 285.493ZM112.778 293.154C114.931 293.154 116.338 291.578 116.338 289.217C116.338 286.84 114.931 285.264 112.778 285.264C110.626 285.264 109.219 286.84 109.219 289.217C109.219 291.578 110.626 293.154 112.778 293.154ZM112.783 291.906C111.376 291.906 110.72 290.678 110.72 289.212C110.72 287.75 111.376 286.507 112.783 286.507C114.18 286.507 114.837 287.75 114.837 289.212C114.837 290.678 114.18 291.906 112.783 291.906ZM119.484 288.466C119.484 287.248 120.23 286.552 121.264 286.552C122.273 286.552 122.884 287.213 122.884 288.322V293H124.371V288.143C124.371 286.254 123.332 285.264 121.771 285.264C120.622 285.264 119.872 285.796 119.519 286.607H119.424V285.364H117.997V293H119.484V288.466ZM129.566 296.023C131.51 296.023 133.012 295.133 133.012 293.169V285.364H131.555V286.602H131.445C131.182 286.129 130.655 285.264 129.233 285.264C127.389 285.264 126.031 286.721 126.031 289.152C126.031 291.588 127.419 292.886 129.223 292.886C130.625 292.886 131.167 292.095 131.436 291.608H131.53V293.109C131.53 294.308 130.71 294.825 129.581 294.825C128.343 294.825 127.861 294.203 127.597 293.766L126.32 294.293C126.722 295.227 127.742 296.023 129.566 296.023ZM129.551 291.653C128.224 291.653 127.533 290.634 127.533 289.132C127.533 287.665 128.209 286.527 129.551 286.527C130.849 286.527 131.545 287.586 131.545 289.132C131.545 290.708 130.834 291.653 129.551 291.653ZM140.727 287.228C140.419 286.04 139.49 285.264 137.839 285.264C136.114 285.264 134.891 286.174 134.891 287.526C134.891 288.61 135.547 289.331 136.979 289.649L138.271 289.933C139.007 290.097 139.35 290.425 139.35 290.902C139.35 291.494 138.719 291.956 137.744 291.956C136.855 291.956 136.283 291.573 136.104 290.822L134.667 291.041C134.916 292.393 136.039 293.154 137.754 293.154C139.599 293.154 140.877 292.175 140.877 290.793C140.877 289.714 140.191 289.048 138.789 288.724L137.575 288.446C136.735 288.247 136.372 287.964 136.377 287.447C136.372 286.86 137.009 286.442 137.854 286.442C138.779 286.442 139.206 286.955 139.38 287.467L140.727 287.228Z" fill="#6B7280"/>
<rect width="192" height="1" transform="translate(24 316)" fill="#E5E7EB"/>
<path d="M27.0824 346H28.3551L30.6023 337.886H30.6818L32.929 346H34.2017L36.9858 335.818H35.733L33.6051 344.111H33.5057L31.3381 335.818H29.946L27.7784 344.111H27.679L25.5511 335.818H24.2983L27.0824 346ZM40.8537 346.159C42.4048 346.159 43.5384 345.384 43.8963 344.23L42.7628 343.912C42.4645 344.707 41.7734 345.105 40.8537 345.105C39.4766 345.105 38.527 344.215 38.4723 342.58H44.0156V342.082C44.0156 339.239 42.3253 338.264 40.7344 338.264C38.6662 338.264 37.294 339.895 37.294 342.241C37.294 344.588 38.6463 346.159 40.8537 346.159ZM38.4723 341.565C38.5518 340.377 39.392 339.318 40.7344 339.318C42.0071 339.318 42.8224 340.273 42.8224 341.565H38.4723ZM46.9737 335.818H45.8004V346H46.9737V335.818ZM52.225 346.159C53.9153 346.159 55.0289 345.125 55.2278 343.773H54.0545C53.8358 344.608 53.1397 345.105 52.225 345.105C50.8329 345.105 49.938 343.952 49.938 342.182C49.938 340.452 50.8528 339.318 52.225 339.318C53.2591 339.318 53.8755 339.955 54.0545 340.651H55.2278C55.0289 339.219 53.8159 338.264 52.2051 338.264C50.1369 338.264 48.7647 339.895 48.7647 342.222C48.7647 344.509 50.0772 346.159 52.225 346.159ZM60.0453 346.159C62.1135 346.159 63.5055 344.588 63.5055 342.222C63.5055 339.835 62.1135 338.264 60.0453 338.264C57.9771 338.264 56.585 339.835 56.585 342.222C56.585 344.588 57.9771 346.159 60.0453 346.159ZM60.0453 345.105C58.4743 345.105 57.7583 343.753 57.7583 342.222C57.7583 340.69 58.4743 339.318 60.0453 339.318C61.6163 339.318 62.3322 340.69 62.3322 342.222C62.3322 343.753 61.6163 345.105 60.0453 345.105ZM65.2965 346H66.4698V341.227C66.4698 340.109 67.2852 339.318 68.1999 339.318C69.0898 339.318 69.7113 339.9 69.7113 340.77V346H70.9045V341.028C70.9045 340.044 71.521 339.318 72.5948 339.318C73.43 339.318 74.146 339.761 74.146 340.889V346H75.3192V340.889C75.3192 339.094 74.3548 338.264 72.9925 338.264C71.8988 338.264 71.0984 338.766 70.7056 339.557H70.6261C70.2482 338.741 69.582 338.264 68.5778 338.264C67.5835 338.264 66.8477 338.741 66.5295 339.557H66.43V338.364H65.2965V346ZM80.6662 346.159C82.2173 346.159 83.3509 345.384 83.7088 344.23L82.5753 343.912C82.277 344.707 81.5859 345.105 80.6662 345.105C79.2891 345.105 78.3395 344.215 78.2848 342.58H83.8281V342.082C83.8281 339.239 82.1378 338.264 80.5469 338.264C78.4787 338.264 77.1065 339.895 77.1065 342.241C77.1065 344.588 78.4588 346.159 80.6662 346.159ZM78.2848 341.565C78.3643 340.377 79.2045 339.318 80.5469 339.318C81.8196 339.318 82.6349 340.273 82.6349 341.565H78.2848ZM92.8714 338.364H91.2408V336.534H90.0675V338.364H88.9141V339.358H90.0675V344.131C90.0675 345.463 91.1413 346.099 92.1357 346.099C92.5732 346.099 92.8516 346.02 93.0107 345.96L92.772 344.906C92.6726 344.926 92.5135 344.966 92.255 344.966C91.7379 344.966 91.2408 344.807 91.2408 343.812V339.358H92.8714V338.364ZM97.6566 346.159C99.7248 346.159 101.117 344.588 101.117 342.222C101.117 339.835 99.7248 338.264 97.6566 338.264C95.5884 338.264 94.1964 339.835 94.1964 342.222C94.1964 344.588 95.5884 346.159 97.6566 346.159ZM97.6566 345.105C96.0856 345.105 95.3697 343.753 95.3697 342.222C95.3697 340.69 96.0856 339.318 97.6566 339.318C99.2276 339.318 99.9435 340.69 99.9435 342.222C99.9435 343.753 99.2276 345.105 97.6566 345.105ZM107.004 346H108.237V342.281H110.465C112.836 342.281 113.905 340.839 113.905 339.04C113.905 337.24 112.836 335.818 110.445 335.818H107.004V346ZM108.237 341.188V336.912H110.405C112.061 336.912 112.692 337.817 112.692 339.04C112.692 340.263 112.061 341.188 110.425 341.188H108.237ZM115.732 346H116.905V341.168C116.905 340.134 117.721 339.378 118.834 339.378C119.148 339.378 119.471 339.438 119.55 339.457V338.264C119.416 338.254 119.108 338.244 118.934 338.244C118.019 338.244 117.224 338.761 116.945 339.517H116.866V338.364H115.732V346ZM123.91 346.159C125.461 346.159 126.595 345.384 126.953 344.23L125.819 343.912C125.521 344.707 124.83 345.105 123.91 345.105C122.533 345.105 121.584 344.215 121.529 342.58H127.072V342.082C127.072 339.239 125.382 338.264 123.791 338.264C121.723 338.264 120.351 339.895 120.351 342.241C120.351 344.588 121.703 346.159 123.91 346.159ZM121.529 341.565C121.608 340.377 122.449 339.318 123.791 339.318C125.064 339.318 125.879 340.273 125.879 341.565H121.529ZM128.857 346H130.03V341.227C130.03 340.109 130.846 339.318 131.76 339.318C132.65 339.318 133.272 339.9 133.272 340.77V346H134.465V341.028C134.465 340.044 135.081 339.318 136.155 339.318C136.991 339.318 137.706 339.761 137.706 340.889V346H138.88V340.889C138.88 339.094 137.915 338.264 136.553 338.264C135.459 338.264 134.659 338.766 134.266 339.557H134.187C133.809 338.741 133.143 338.264 132.138 338.264C131.144 338.264 130.408 338.741 130.09 339.557H129.991V338.364H128.857V346ZM141.025 346H142.198V338.364H141.025V346ZM141.622 337.091C142.079 337.091 142.457 336.733 142.457 336.295C142.457 335.858 142.079 335.5 141.622 335.5C141.164 335.5 140.786 335.858 140.786 336.295C140.786 336.733 141.164 337.091 141.622 337.091ZM149.16 342.878C149.16 344.31 148.066 344.966 147.191 344.966C146.217 344.966 145.521 344.25 145.521 343.136V338.364H144.347V343.216C144.347 345.165 145.381 346.099 146.813 346.099C147.967 346.099 148.722 345.483 149.08 344.707H149.16V346H150.333V338.364H149.16V342.878ZM152.482 346H153.655V341.227C153.655 340.109 154.471 339.318 155.385 339.318C156.275 339.318 156.897 339.9 156.897 340.77V346H158.09V341.028C158.09 340.044 158.706 339.318 159.78 339.318C160.616 339.318 161.331 339.761 161.331 340.889V346H162.505V340.889C162.505 339.094 161.54 338.264 160.178 338.264C159.084 338.264 158.284 338.766 157.891 339.557H157.812C157.434 338.741 156.768 338.264 155.763 338.264C154.769 338.264 154.033 338.741 153.715 339.557H153.616V338.364H152.482V346Z" fill="#6B7280"/>
<defs>
<filter id="filter0_d_1340_730" x="6" y="83" width="228" height="44" filterUnits="userSpaceOnUse" color-interpolation-filters="sRGB">
<feFlood flood-opacity="0" result="BackgroundImageFix"/>
<feColorMatrix in="SourceAlpha" type="matrix" values="0 0 0 0 0 0 0 0 0 0 0 0 0 0 0 0 0 0 127 0" result="hardAlpha"/>
<feOffset dy="1"/>
<feGaussianBlur stdDeviation="1"/>
<feColorMatrix type="matrix" values="0 0 0 0 0 0 0 0 0 0 0 0 0 0 0 0 0 0 0.05 0"/>
<feBlend mode="normal" in2="BackgroundImageFix" result="effect1_dropShadow_1340_730"/>
<feBlend mode="normal" in="SourceGraphic" in2="effect1_dropShadow_1340_730" result="shape"/>
</filter>
<clipPath id="clip0_1340_730">
<rect width="134" height="40" fill="white" transform="translate(24 24)"/>
</clipPath>
</defs>
</svg>
